<?xml version="1.0" encoding="UTF-8" standalone="no"?><!DOCTYPE svg PUBLIC "-//W3C//DTD SVG 1.1//EN" "http://www.w3.org/Graphics/SVG/1.1/DTD/svg11.dtd"><svg width="100%" height="100%" viewBox="0 0 37500 16667" version="1.1" xmlns="http://www.w3.org/2000/svg" xmlns:xlink="http://www.w3.org/1999/xlink" xml:space="preserve" xmlns:serif="http://www.serif.com/" style="fill-rule:evenodd;clip-rule:evenodd;stroke-linejoin:round;stroke-miterlimit:2;"><g><rect x="97.112" y="96.487" width="37305.8" height="16473.7" style="fill:#feffff;"/><clipPath id="_clip1"><path d="M34838.7,10565c-1579.46,-0.042 -3180.83,-1390 -4396.41,-2915.5c-1887,-2367.96 -1981.25,-5487.82 -4749.71,-6147.02c-397.583,-94.667 -839.583,-146.959 -1327.54,-146.959c-1681.71,0 -3906,621.834 -6709.88,2274.43c-1287.04,758.599 -2410.33,1066.72 -3386.75,1066.72c-2992.29,0 -4601.79,-2896.14 -5289.62,-4600.22l28424,0l-0,8936.68c-799.919,1094.96 -1678.59,1531.88 -2564.13,1531.88Z"/></clipPath><g clip-path="url(#_clip1)"><path d="M8978.83,96.487c912.251,2260.14 3445.12,6616.8 8676.38,3533.5c3617.5,-2132.14 6269.62,-2548.37 8037.42,-2127.47c2768.46,659.204 2862.71,3779.07 4749.71,6147.02c1897.12,2380.83 4733.87,4431.5 6960.54,1383.63l-0,-8936.68l-28424,0Z" style="fill:url(#_Linear2);"/></g><clipPath id="_clip3"><rect x="97.112" y="3582.37" width="30899.8" height="12987.8"/></clipPath><g clip-path="url(#_clip3)"><path d="M97.112,16570.2l30899.8,-0c-1146.75,-2083.17 -3575.16,-4433.04 -8585.62,-3403.04c-6791.88,1396.17 -10964.2,-432.375 -13968,-2260.96c-3636.21,-2213.5 -5560.22,-4427 -8346.14,-920.417l0,6584.42Z" style="fill:url(#_Linear4);"/></g><path d="M1935.82,96.491c-753.663,4658.51 -134.113,7323.22 1274.74,8748.68c1204.73,1218.83 2987.78,1532.42 4982.69,1413c66.792,-11.334 133.625,-22.667 200.667,-33.792c97.499,-16.708 195.245,-33.292 293.245,-49.542c97.547,-16.708 195.255,-33.291 293.255,-49.583c97.541,-16.708 195.249,-33.25 293.249,-49.541c97.543,-16.709 195.251,-33.292 293.251,-49.584c97.541,-16.708 195.249,-33.292 293.249,-49.542c97.543,-16.708 195.293,-33.291 293.251,-49.583c97.541,-16.708 195.291,-33.25 293.291,-49.542c97.501,-16.708 195.251,-33.291 293.251,-49.583c97.499,-16.667 195.249,-33.25 293.249,-49.541c97.542,-16.709 195.251,-33.251 293.251,-49.542c97.541,-16.709 195.249,-33.292 293.249,-49.584c97.542,-16.708 195.251,-33.25 293.251,-49.541c97.541,-16.709 195.249,-33.25 293.249,-49.584c97.542,-16.708 195.292,-33.25 293.292,-49.542c97.5,-16.708 195.25,-33.249 293.25,-49.541c97.541,-16.75 195.291,-33.292 293.25,-49.583c97.542,-16.709 195.292,-33.292 293.25,-49.542c97.541,-16.708 195.25,-33.292 293.25,-49.583c97.542,-16.709 195.25,-33.25 293.25,-49.542c97.541,-16.708 195.291,-33.292 293.291,-49.583c97.501,-16.709 195.251,-33.25 293.251,-49.542c97.499,-16.708 195.249,-33.25 293.249,-49.583c97.543,-16.709 195.293,-33.209 293.251,-49.542c97.541,-16.708 195.249,-33.292 293.249,-49.583c97.501,-16.709 195.251,-33.25 293.251,-49.542c5930.5,-1016.17 12756.6,-1313.96 15076.5,5465.46c267.041,780.375 485.25,1485.71 676.916,2119.33l-28.666,-0c-191.166,-631.667 -408.708,-1334.38 -674.292,-2110.58c-1859.38,-5433.62 -6627.33,-6306.88 -11501.8,-5913.41c4780.83,-335.296 9406.58,612.371 11234.5,5954.2c260.083,760.083 473.875,1449.04 661.916,2069.79l-28.709,-0c-187.5,-618.792 -400.582,-1305.08 -659.249,-2061c-1859.38,-5433.67 -6627.33,-6306.92 -11501.7,-5913.42c4780.83,-335.333 9406.58,612.375 11234.5,5954.21c253.165,739.917 462.5,1412.42 646.915,2020.21l-28.749,-0c-183.791,-605.834 -392.418,-1275.62 -644.208,-2011.46c-1859.38,-5433.62 -6627.29,-6306.92 -11501.8,-5913.41c4780.88,-335.338 9406.62,612.329 11234.5,5954.2c246.334,719.875 451.166,1375.92 631.918,1970.67l-28.752,-0c-180.166,-592.75 -384.249,-1246.08 -629.167,-1961.92c-1859.41,-5433.62 -6627.33,-6306.92 -11501.8,-5913.38c4780.87,-335.333 9406.62,612.333 11234.5,5954.21c239.5,699.917 439.791,1339.46 616.791,1921.08l-28.709,-0c-176.457,-579.542 -375.958,-1216.38 -614.124,-1912.33c-1859.38,-5433.67 -6627.29,-6306.92 -11501.7,-5913.42c4780.83,-335.333 9406.62,612.375 11234.5,5954.21c232.709,680.125 428.418,1303.25 601.709,1871.54l-28.709,-0c-172.749,-566.25 -367.665,-1186.62 -599.041,-1862.79c-1859.33,-5433.62 -6627.29,-6306.88 -11501.8,-5913.42c4780.84,-335.293 9406.58,612.374 11234.5,5954.25c225.958,660.375 417,1267.04 586.584,1821.96l-28.751,-0c-168.958,-552.834 -359.249,-1156.71 -583.875,-1813.21c-1859.33,-5433.67 -6627.29,-6306.92 -11501.7,-5913.42c4780.88,-335.333 9406.58,612.334 11234.5,5954.21c219.251,640.792 405.666,1231 571.418,1772.42l-28.75,-0c-165.167,-539.292 -350.751,-1126.75 -568.709,-1763.67c-1859.38,-5433.62 -6627.29,-6306.92 -11501.8,-5913.42c4780.88,-335.287 9406.62,612.376 11234.5,5954.25c212.583,621.25 394.291,1195 556.207,1722.83l-28.749,-0c-161.333,-525.709 -342.251,-1096.62 -553.5,-1714.08c-1859.38,-5433.67 -6627.29,-6306.96 -11501.8,-5913.42c4780.83,-335.334 9406.63,612.333 11234.5,5954.21c205.917,601.875 382.833,1159.17 540.957,1673.29l-28.75,-0c-157.458,-511.959 -333.583,-1066.42 -538.248,-1664.54c-1859.38,-5433.62 -6627.29,-6306.92 -11501.8,-5913.42c4780.88,-335.375 9406.62,612.375 11234.6,5954.25c199.334,582.584 371.5,1123.38 525.708,1623.71l-28.75,-0c-153.625,-498.125 -324.916,-1036.08 -523.041,-1614.96c-1859.33,-5433.62 -6627.29,-6306.91 -11501.8,-5913.42c4780.83,-335.333 9406.62,612.333 11234.5,5954.21c192.791,563.417 360.207,1087.71 510.457,1574.17l-28.75,-0c-149.666,-484.209 -316.209,-1005.67 -507.749,-1565.42c-1859.33,-5433.67 -6627.25,-6306.92 -11501.8,-5913.42c4780.83,-335.334 9406.63,612.333 11234.5,5954.21c186.251,544.333 348.834,1052.17 495.168,1524.62l-28.835,-0c-145.707,-470.167 -307.332,-975.167 -492.375,-1515.88c-1859.33,-5433.62 -6627.29,-6306.88 -11501.7,-5913.38c4780.88,-335.333 9406.62,612.334 11234.5,5954.21c179.75,525.333 337.459,1016.67 479.75,1475.04l-28.792,-0c-141.667,-456.084 -298.501,-944.584 -477,-1466.29c-1859.38,-5433.67 -6627.37,-6306.92 -11501.8,-5913.42c4780.79,-335.333 9406.58,612.376 11234.5,5954.21c173.291,506.458 326.042,981.375 464.333,1425.5l-28.792,-0c-137.624,-441.875 -289.5,-913.875 -461.583,-1416.75c-1859.38,-5433.62 -6627.38,-6306.88 -11501.8,-5913.38c4780.83,-335.334 9406.58,612.333 11234.5,5954.21c166.875,487.667 314.708,946.042 448.875,1375.92l-28.792,-0c-133.5,-427.542 -280.458,-883.084 -446.124,-1367.17c-1859.38,-5433.62 -6627.33,-6306.96 -11501.8,-5913.42c4780.79,-335.291 9406.62,612.375 11234.6,5954.21c160.459,469 303.334,910.875 433.376,1326.38l-28.792,-0c-129.375,-413.167 -271.375,-852.167 -430.666,-1317.62c-1859.34,-5433.62 -6627.29,-6306.92 -11501.8,-5913.42c4780.83,-335.291 9406.62,612.333 11234.5,5954.21c154.124,450.417 291.998,875.792 417.875,1276.83l-28.792,-0c-125.167,-398.667 -262.209,-821.167 -415.125,-1268.08c-1859.33,-5433.62 -6627.33,-6306.92 -11501.8,-5913.38c4780.88,-335.374 9406.63,612.334 11234.5,5954.21c147.793,431.916 280.626,840.75 402.293,1227.25l-28.792,-0c-120.958,-384.042 -252.958,-790.084 -399.542,-1218.5c-1859.33,-5433.63 -6627.29,-6306.96 -11501.8,-5913.42c4780.83,-335.334 9406.63,612.375 11234.5,5954.21c141.459,413.459 269.25,805.875 386.668,1177.71l-28.835,-0c-116.667,-369.375 -243.541,-758.875 -383.875,-1168.96c-1859.33,-5433.62 -6627.33,-6306.88 -11501.8,-5913.38c4780.83,-335.291 9406.62,612.334 11234.5,5954.21c135.209,395.125 257.916,771.041 371,1128.12l-28.833,-0c-112.376,-354.584 -234.167,-727.625 -368.209,-1119.38c-1859.38,-5433.67 -6627.33,-6306.92 -11501.7,-5913.42c4780.79,-335.375 9406.58,612.334 11234.5,5954.21c128.957,376.917 246.541,736.334 355.249,1078.58l-28.833,-0c-108,-339.792 -224.667,-696.292 -352.458,-1069.83c-1859.38,-5433.62 -6627.33,-6306.92 -11501.8,-5913.42c4780.83,-335.334 9406.67,612.333 11234.6,5954.25c122.752,358.75 235.169,701.666 339.5,1029l-28.874,-0c-103.542,-324.792 -215.041,-664.834 -336.668,-1020.25c-1859.38,-5433.62 -6627.29,-6306.88 -11501.8,-5913.42c4780.87,-335.333 9406.62,612.333 11234.6,5954.21c116.542,340.709 223.834,667.084 323.667,979.459l-28.876,-0c-99.041,-309.834 -205.416,-633.292 -320.833,-970.709c-1859.38,-5433.62 -6627.34,-6306.92 -11501.8,-5913.42c4780.83,-335.292 9406.62,612.375 11234.5,5954.25c110.417,322.708 212.5,632.625 307.835,929.875l-28.833,-0c-94.543,-294.709 -195.709,-601.667 -305.001,-921.125c-1859.38,-5433.67 -6627.37,-6306.96 -11501.8,-5913.42c4780.83,-335.375 9406.62,612.333 11234.5,5954.21c104.333,304.834 201.168,598.209 291.917,880.334l-28.876,-0c-89.958,-279.5 -185.874,-570 -289.083,-871.584c-1859.33,-5433.67 -6627.33,-6307 -11501.7,-5913.42c4780.79,-335.333 9406.62,612.376 11234.5,5954.25c98.208,287 189.875,563.833 275.959,830.75l-28.876,-0c-85.291,-264.25 -175.999,-538.209 -273.124,-822c-1859.34,-5433.67 -6627.33,-6307 -11501.8,-5913.42c4780.83,-335.375 9406.58,612.334 11234.5,5954.21c92.124,269.292 178.499,529.625 259.957,781.209l-28.917,-0c-80.623,-248.917 -166.04,-506.375 -257.082,-772.459c-1859.33,-5433.67 -6627.29,-6306.92 -11501.8,-5913.42c4780.79,-335.334 9406.58,612.374 11234.5,5954.21c86.082,251.667 167.125,495.5 243.832,731.667l-28.874,-0c-75.875,-233.5 -155.959,-474.417 -240.999,-722.917c-1909.5,-5580.21 -6886.63,-6350.42 -11896.4,-5878.58c-144.167,25.333 -286.042,49.625 -425.542,72.625c-98.833,17.083 -196.625,33.625 -293.25,49.542c-98.834,17.083 -196.625,33.624 -293.25,49.582c-98.917,17.042 -196.667,33.626 -293.25,49.542c-98.916,17.125 -196.667,33.625 -293.292,49.584c-98.833,17.041 -196.625,33.625 -293.249,49.541c-98.834,17.084 -196.63,33.625 -293.251,49.584c-98.833,17.041 -196.625,33.583 -293.249,49.542c-98.834,17.083 -196.626,33.624 -293.25,49.541c-98.876,17.125 -196.626,33.625 -293.25,49.583c-98.876,17.084 -196.667,33.625 -293.25,49.542c-98.876,17.125 -196.667,33.625 -293.292,49.583c-98.833,17.084 -196.625,33.584 -293.25,49.542c-98.833,17.125 -196.625,33.625 -293.25,49.583c-98.833,17.084 -196.626,33.584 -293.25,49.542c-98.875,17.083 -196.626,33.625 -293.25,49.583c-98.875,17.084 -196.626,33.584 -293.25,49.542c-98.875,17.083 -196.626,33.625 -293.292,49.542c-98.833,17.125 -196.625,33.625 -293.25,49.583c-98.833,17.083 -196.625,33.625 -293.25,49.542c-98.833,17.083 -196.625,33.625 -293.25,49.583c-98.833,17.083 -196.625,33.625 -293.254,49.541c-98.854,17.084 -196.638,33.626 -293.254,49.584c-98.85,17.083 -196.634,33.583 -293.259,49.542c-98.854,17.083 -196.637,33.625 -293.254,49.541c-98.85,17.125 -196.633,33.625 -293.262,49.584c-98.85,17.083 -196.634,33.625 -293.25,49.541c-98.85,17.125 -196.634,33.625 -293.263,49.584c-312.575,54 -614.258,102.542 -903.496,143.916c-448.429,64.167 -891.02,113.25 -1324.1,142.542l0,-27.417c89.109,-6.041 178.55,-12.833 268.4,-20.499c-89.908,5.916 -179.349,10.916 -268.4,15.083l0,-27.292c185.396,-8.666 372.671,-21.25 561.655,-37.375c-189.15,12.5 -376.45,21.125 -561.655,25.625l0,-27.333c280.405,-6.792 565.7,-23.167 854.913,-47.834c-289.629,19.084 -574.979,29.292 -854.913,29.167l0,-27.333c373.942,0.166 757.488,-18.042 1148.17,-51.417c-391.475,25.833 -775.079,35.333 -1148.17,25.083l0,-27.25c465.696,12.792 947.9,-5.208 1441.42,-47.375c-494.845,32.667 -977.108,39.167 -1441.42,12.75l0,-27.25c555.409,31.709 1136.78,16 1734.67,-35.083c-599.912,39.625 -1181.38,40.917 -1734.67,-8.542l0,-27.333c642.751,57.667 1323.91,46.5 2027.94,-13.667c-706.892,46.667 -1388.19,40.209 -2027.94,-39.958l0,-27.5c727.405,91.542 1509.06,87.291 2321.19,17.875c-816.042,53.875 -1597.95,36.917 -2321.19,-82.5l0,-27.667c808.942,134.125 1692.04,139.458 2614.45,60.625c-927.563,61.209 -1811.08,31 -2614.45,-137.25l0,-27.916c886.905,186.625 1872.54,204.041 2907.7,115.583c-1041.88,68.792 -2028.18,22.166 -2907.7,-205.875l0,-28.209c960.7,250.334 2050.24,282.876 3200.97,184.542c-1159.33,76.5 -2249.82,10.209 -3200.97,-290.041l0,-28.667c1029.72,326.875 2224.74,377.625 3494.22,269.167c-1280.35,84.458 -2476.78,-5.167 -3494.22,-391.833l0,-29.334c1093.14,418.042 2395.52,490.542 3787.48,371.583c-1405.56,92.75 -2709.97,-24.291 -3787.48,-513.875l0,-30.083c1149.98,526.125 2562.06,624.208 4080.72,494.417c-1535.65,101.333 -2950.58,-47.75 -4080.72,-659.542l0,-31.125c1199.04,654.125 2723.57,782.083 4373.97,641.083c-1671.58,110.334 -3200.09,-76.166 -4373.97,-833.041l0,-32.584c1238.73,805.834 2879.11,968.876 4667.22,816.084c-1814.5,119.75 -3460.5,-110.084 -4667.22,-1039.71l0,-34.875c1266.92,986.25 3027.34,1190.21 4960.51,1025.04c-1966.2,129.708 -3734.55,-151.042 -4960.51,-1287.96l0,-37.375c1277.36,1199.08 3156.64,1452.79 5237.22,1277.21l2.834,-0.583c-2032.29,132.208 -3852.28,-175.583 -5078.71,-1416.38c-55.033,-55.709 -108.737,-113.5 -161.342,-173l0,-41.5c58.8,67.458 119.001,132.708 180.88,195.333c1264.98,1279.79 3167.6,1561.5 5283.59,1391.88l11.125,-2.125c-2009.05,122.625 -3806.19,-191.083 -5021,-1420.17c-162.25,-164.167 -314.066,-344.666 -454.596,-542.625l0,-47.875c145.95,209.292 304.213,399.417 474.146,571.375c1252.64,1267.29 3130.55,1555.96 5221.74,1396.79l21.25,-4.125c-1988.16,114.125 -3764.93,-204.625 -4969.28,-1423.08c-282.413,-285.75 -533.217,-621.042 -747.855,-1011.62l0,-57.625c218.68,407.375 476.067,755.375 767.396,1050.08c1241.71,1256.25 3097.84,1550.79 5167.07,1400.79l28.167,-5.375c-1968.85,106.333 -3726.81,-217.084 -4921.53,-1425.83c-423.1,-428.041 -775.321,-967.249 -1041.11,-1637.46l0,-75.458c267.213,696.958 626.38,1254.38 1060.66,1693.79c1231.6,1246.04 3067.65,1546.04 5116.56,1404.42l36.625,-6.833c-1951.8,99.416 -3693.27,-227.876 -4879.48,-1428c-604.771,-611.876 -1064.79,-1450.5 -1334.37,-2574.83l0,-120.834c264.105,1176.79 732.105,2047.42 1353.91,2676.5c1222.99,1237.38 3042.1,1541.71 5073.77,1407.25l42.834,-7.875c-1936.96,93.5 -3664.11,-237.167 -4842.89,-1429.79c-1439.14,-1456 -2058.73,-4196.21 -1241.92,-9015.59l27.8,0c-816.308,4812.18 -199.983,7545.97 1233.67,8996.47c1215.55,1229.79 3019.97,1537.96 5036.6,1409.67l48.75,-8.792c-1924.29,88.417 -3639.19,-245.083 -4811.63,-1431.29c-1434.21,-1451.04 -2054.48,-4177.46 -1250.3,-8966.05l27.804,0c-803.683,4781.34 -186.7,7501.38 1242.03,8946.88c1209.92,1224.12 3003.22,1535.21 5008.59,1411.54l52.708,-9.5c-1914.5,84.541 -3620.01,-251.167 -4787.59,-1432.46c-1429.26,-1446 -2050.26,-4158.5 -1258.63,-8916.47l27.804,0c-791.163,4750.68 -173.433,7456.84 1250.38,8897.34c1206.25,1220.42 2992.33,1533.29 4990.33,1412.63l57.25,-10.042c-1908.96,82.333 -3609.1,-254.584 -4773.87,-1433c-1424.34,-1441.04 -2046.14,-4139.5 -1266.98,-8866.93l27.775,0c-778.679,4720.13 -160.129,7412.26 1258.75,8847.8c1204.71,1218.83 2987.79,1532.42 4982.7,1413l60.5,-10.25c-1907.17,81.625 -3605.6,-255.667 -4769.49,-1433.17c-1419.28,-1436 -2041.58,-4120.83 -1274.95,-8817.38l27.746,0c-766.162,4689.26 -147.108,7367.72 1266.76,8798.22c1204.7,1218.88 2987.78,1532.42 4982.69,1413.04l60.5,-10.292c-1907.17,81.625 -3605.58,-255.666 -4769.48,-1433.17c-1414.28,-1430.88 -2037.05,-4102 -1282.95,-8767.8l27.742,0Zm-1838.7,625.684c30.834,-204.596 64.413,-413.142 100.784,-625.684l27.804,0c-47.625,278.238 -90.383,549.43 -128.588,813.988l0,-188.304Z" style="fill:#e0e1e0;"/><path d="M23925.3,96.491c2927.71,1315.5 4487.42,3128.34 5472.46,5020.3c-933.083,-1870.67 -2399.58,-3678.19 -5162.5,-5020.3l63.208,0c2639.88,1294.85 4089.38,3016.26 5022.71,4808.88c-884.875,-1774.11 -2249.38,-3491.47 -4744.54,-4808.88l58.915,0c2379.88,1267.82 3725.71,2900.76 4609.04,4597.47c-838.293,-1680.66 -2107,-3310.45 -4359.67,-4597.47l56.126,0c2144.04,1235.33 3391.96,2782.25 4226.96,4386.01c-793.04,-1589.89 -1971.46,-3134.24 -4003.54,-4386.01l53.249,0c1929.71,1198.17 3085.71,2661.03 3873.71,4174.59c-748.958,-1501.53 -1841.71,-2962.4 -3672.58,-4174.59l50.625,0c1734.29,1156.86 2803.08,2537.51 3545.38,3963.18c-705.876,-1415.25 -1717.29,-2794.33 -3364.13,-3963.18l48.291,0c1555.62,1111.95 2541.67,2411.94 3239.25,3751.75c-663.792,-1330.81 -1597.71,-2629.62 -3076.09,-3751.75l46.334,0c1392.04,1063.76 2299.38,2284.58 2953.17,3540.33c-622.5,-1248.02 -1482.58,-2467.9 -2806.42,-3540.33l44.543,0c1242.17,1012.73 2074.37,2155.55 2685.29,3328.91c-581.958,-1166.72 -1371.58,-2308.83 -2553.5,-3328.91l42.916,0c1104.63,959.147 1865.25,2025.09 2434,3117.48c-542.041,-1086.73 -1264.25,-2152.16 -2315.83,-3117.48l41.457,0c978.292,903.288 1670.5,1893.28 2197.79,2906.06c-502.75,-1007.96 -1160.38,-1997.63 -2092.17,-2906.06l40.084,0c862.25,845.359 1489.04,1760.33 1975.5,2694.64c-463.999,-930.309 -1060,-1845.01 -1881.58,-2694.64l39.04,0c755.625,785.604 1319.79,1626.28 1765.96,2483.22c-425.792,-853.63 -962.791,-1694.07 -1683.12,-2483.22l38.375,0c657.625,724.225 1161.79,1491.28 1568.17,2271.8c-388.001,-777.841 -868.417,-1544.71 -1495.63,-2271.8l37.333,0c567.625,661.405 1014.63,1355.38 1381.71,2060.37c-350.543,-702.803 -776.585,-1396.7 -1318.13,-2060.37l36.209,0c484.999,597.259 877.166,1218.68 1205.33,1848.95c-313.499,-628.525 -687.25,-1249.91 -1150.08,-1848.95l35.249,0c409.083,531.918 748.666,1081.29 1038.25,1637.53c-276.79,-554.896 -600.624,-1104.24 -991.125,-1637.53l34.708,0c339.46,465.592 628.418,943.255 879.834,1426.1c-240.374,-481.863 -516.333,-959.496 -840.501,-1426.1l34.459,0c275.5,398.368 515.959,804.638 729.459,1214.68c-204.166,-409.342 -434.084,-815.6 -697.292,-1214.68l33.584,0c216.958,330.314 411.291,665.504 587.126,1003.26c-168.252,-337.262 -353.793,-672.484 -561.127,-1003.26l32.709,0c163.334,261.638 313.375,525.934 451.833,791.838c-132.459,-265.604 -275.875,-529.924 -432.042,-791.838l32.459,0c114.25,192.329 221.751,385.95 323,580.413c-96.916,-194.3 -199.833,-387.921 -309.084,-580.413l32.251,0c69.334,122.589 136,245.609 200.25,368.989c-61.501,-123.293 -125.417,-246.342 -191.75,-368.989l31.5,0c28.292,52.459 56.25,104.976 83.667,157.572c-26.251,-52.596 -53.041,-105.084 -80.125,-157.572l86.499,0c245.626,522.404 452.959,1048.12 638.334,1568.52c25.875,70.57 51.5,141.024 76.583,211.42c25.875,70.546 51.5,141.059 76.583,211.425c25.875,70.546 51.5,141.05 76.583,211.425c25.875,70.563 51.501,141.016 76.585,211.426c25.875,70.561 51.499,141.02 76.583,211.424c25.875,70.534 51.499,141.051 76.583,211.417c25.874,70.541 51.499,141.054 76.582,211.425c25.875,70.541 51.502,141.046 76.585,211.424c25.875,70.543 51.5,141.047 76.583,211.421c25.875,70.534 51.5,141.046 76.583,211.43c25.875,70.529 51.499,141.046 76.583,211.413c25.875,70.541 51.501,141.054 76.583,211.424c25.877,70.583 51.501,141.042 76.585,211.417c25.874,70.541 51.499,141.042 76.582,211.417c25.875,70.541 51.5,141.083 76.583,211.458c25.875,70.5 51.5,141.042 76.583,211.417c25.877,70.541 51.502,141.042 76.585,211.416c25.875,70.542 51.499,141.042 76.583,211.417c25.875,70.541 51.499,141.042 76.583,211.416c25.875,70.543 51.499,141.084 76.583,211.417c25.874,70.542 51.501,141.042 76.584,211.417c13.957,38.084 27.792,76.083 41.541,114.084c1061.12,1965.75 2882.5,3115.54 7472.04,2391.12l-0,27.583c-4484.67,707.5 -6334.21,-369.75 -7410.88,-2250.08l15.416,42.792c1055.21,1954.75 2862.25,3102.5 7395.46,2402.96l-0,27.75c-4429.25,683.209 -6263.79,-392.5 -7334.29,-2262.08l15.418,42.792c1049.25,1943.83 2841.62,3089.92 7318.88,2414.88l-0,27.708c-4374.13,659.166 -6193.38,-415.163 -7257.71,-2273.96l15.417,42.833c1043.21,1932.71 2821.29,3076.5 7242.29,2426.12l-0,27.584c-4318.5,635.041 -6123.04,-437.209 -7181.13,-2285.13l15.415,42.834c1037.17,1921.42 2800.83,3063.08 7165.71,2437.17l-0,27.709c-4266.5,611.708 -6055.42,-460.875 -7106.92,-2300.29l13.876,39.542c1030.62,1914.54 2778.38,3058 7093.04,2455.46l-0,27.792c-4221.67,589.416 -5993.54,-488.042 -7037.79,-2324.42l11.833,34.541c1023.29,1913.92 2753.88,3064.17 7025.96,2484l-0,27.542c-4182.42,567.792 -5936.84,-518.041 -6973.13,-2356.17l10.083,29.958c1015.37,1917.92 2727.91,3078.67 6963.04,2520.21l-0,27.667c-4147.71,546.917 -5883.59,-550.458 -6911.71,-2393.75l8.293,25c1007.21,1925.54 2700.5,3100.08 6903.42,2562.58l-0,27.792c-4116.54,526.5 -5833.17,-584.708 -6852.75,-2435.79l6.417,19.75c998.834,1935.83 2672.29,3126.42 6846.34,2609.46l-0,27.458c-4087.17,506.208 -5784.88,-619.875 -6795.79,-2480.62l3.79,11.833c990.127,1949.38 2643.46,3158.42 6792,2661.83l-0,27.625c-4061.21,486.208 -5739.13,-657.334 -6741.13,-2530.54l0.751,2.459c981.291,1966.42 2613.12,3197.46 6740.38,2720.87l-0,27.792c-4017.58,464.125 -5678.38,-685 -6673.13,-2556.04c974.208,1965.13 2588.92,3202.71 6673.13,2748.58l-0,27.543c-3962.09,440.707 -5608.17,-705.584 -6596.54,-2564.67c968.083,1952.75 2568.92,3186.88 6596.54,2756.75l-0,27.583c-3906.59,417.458 -5538,-725.834 -6519.96,-2572.92c961.916,1940.33 2548.67,3171.04 6519.96,2764.67l-0,27.875c-3851.67,394.5 -5467.84,-746.167 -6443.38,-2581.12c955.752,1927.88 2527.88,3155.54 6443.38,2772.62l-0,27.458c-3796.38,371.584 -5397.75,-765.916 -6366.79,-2588.67c949.457,1915.21 2507.58,3139.12 6366.79,2779.71l-0,27.625c-3741.34,348.833 -5327.75,-785.458 -6290.21,-2595.92c943.166,1902.46 2486.96,3122.75 6290.21,2786.62l-0,27.959c-3686.79,326.416 -5257.71,-805.042 -6213.63,-2603.17c936.832,1889.75 2465.79,3106.79 6213.63,2793.58l-0,27.334c-3631.67,303.958 -5187.79,-823.959 -6137.04,-2609.5c930.375,1876.71 2445.29,3089.62 6137.04,2799.46l-0,27.75c-3577.04,281.792 -5117.92,-842.833 -6060.46,-2615.79c923.916,1863.75 2424.25,3072.83 6060.46,2805.33l-0,27.916c-3522.79,259.875 -5048.04,-861.5 -5983.88,-2621.79c917.418,1850.62 2402.88,3056 5983.88,2810.92l-0,27.459c-3468,237.958 -4978.34,-879.542 -5907.29,-2626.96c910.834,1837.33 2382,3038.33 5907.29,2815.71l-0,27.875c-3413.88,216.375 -4908.59,-897.667 -5830.71,-2632.17c904.209,1824.04 2360.46,3021.04 5830.71,2820.46l-0,27.792c-3359.75,194.958 -4838.92,-915.333 -5754.13,-2636.83c897.54,1810.54 2338.92,3003.33 5754.13,2824.71l-0,27.625c-3305.5,173.708 -4769.29,-932.583 -5677.54,-2640.92c890.791,1796.96 2317.5,2985.17 5677.54,2828.37l-0,28.042c-3251.92,152.792 -4699.75,-949.833 -5600.96,-2645c884.041,1783.29 2295.5,2967.38 5600.96,2832l-0,27.5c-4067.96,167.792 -5279.09,-1655.12 -6159.63,-4137.25c-25.833,-69.958 -51.376,-140.375 -76.583,-211.417c-25.834,-69.916 -51.376,-140.333 -76.583,-211.416c-25.834,-69.917 -51.376,-140.334 -76.583,-211.417c-25.834,-69.958 -51.375,-140.375 -76.585,-211.416c-25.832,-69.959 -51.375,-140.376 -76.583,-211.459c-25.834,-69.917 -51.375,-140.333 -76.583,-211.416c-25.791,-69.959 -51.375,-140.334 -76.582,-211.413c-25.835,-69.921 -51.376,-140.379 -76.585,-211.421c-25.792,-69.958 -51.416,-140.333 -76.583,-211.417c-25.834,-69.916 -51.375,-140.375 -76.583,-211.416c-25.834,-69.958 -51.375,-140.376 -76.583,-211.417c-25.834,-69.958 -51.375,-140.375 -76.585,-211.458c-25.832,-69.917 -51.373,-140.334 -76.583,-211.417c-25.832,-69.916 -51.375,-140.334 -76.582,-211.417c-25.835,-69.916 -51.376,-140.375 -76.583,-211.417c-25.792,-69.916 -51.376,-140.375 -76.585,-211.416c-25.792,-69.958 -51.373,-140.375 -76.583,-211.417c-25.832,-69.958 -51.375,-140.375 -76.583,-211.417c-25.834,-69.958 -51.375,-140.374 -76.583,-211.416c-25.834,-70 -51.375,-140.375 -76.585,-211.459c-25.832,-69.916 -51.373,-140.374 -76.582,-211.416c-25.833,-69.917 -51.376,-140.375 -76.583,-211.417c-25.584,-69.291 -50.875,-139.041 -75.834,-209.375c-982.416,-1976.56 -2557.54,-3884.1 -5625.29,-5248.09l67.999,0Z" style="fill:#e0e1e0;"/></g><defs><linearGradient id="_Linear2" x1="0" y1="0" x2="1" y2="0" gradientUnits="userSpaceOnUse" gradientTransform="matrix(100.355,15584.3,-15584.3,100.355,23122.3,-4560.54)"><stop offset="0" style="stop-color:#eeefef;stop-opacity:1"/><stop offset="1" style="stop-color:#feffff;stop-opacity:1"/></linearGradient><linearGradient id="_Linear4" x1="0" y1="0" x2="1" y2="0" gradientUnits="userSpaceOnUse" gradientTransform="matrix(-200.727,18922.4,-18922.4,-200.727,15662.8,-839.379)"><stop offset="0" style="stop-color:#ebebec;stop-opacity:1"/><stop offset="1" style="stop-color:#feffff;stop-opacity:1"/></linearGradient></defs></svg>