<?xml version="1.0" encoding="UTF-8" standalone="no"?><!DOCTYPE svg PUBLIC "-//W3C//DTD SVG 1.1//EN" "http://www.w3.org/Graphics/SVG/1.1/DTD/svg11.dtd"><svg width="100%" height="100%" viewBox="0 0 116581 51481" version="1.1" xmlns="http://www.w3.org/2000/svg" xmlns:xlink="http://www.w3.org/1999/xlink" xml:space="preserve" xmlns:serif="http://www.serif.com/" style="fill-rule:evenodd;clip-rule:evenodd;stroke-linejoin:round;stroke-miterlimit:2;"><path d="M92645.9,34887.8l-380.669,-0c0,647.822 -262.667,1232.61 -686.728,1657.36c-424.833,424.446 -1009.53,686.422 -1657.43,686.498c-647.899,-0.076 -1232.61,-262.052 -1657.43,-686.498c-424.061,-424.751 -686.728,-1009.53 -686.728,-1657.36c-0,-647.899 262.667,-1232.68 686.728,-1657.43c424.823,-424.446 1009.53,-686.423 1657.43,-686.499c647.9,0.076 1232.6,262.053 1657.43,686.499c424.061,424.75 686.728,1009.53 686.728,1657.43l380.669,-0c-0.762,-1504.86 -1219.66,-2724.53 -2724.83,-2724.6c-1504.4,0.076 -2724.83,1219.74 -2724.83,2724.6c-0,1504.79 1220.43,2724.37 2724.83,2724.52c1505.17,-0.152 2724.07,-1219.74 2724.83,-2724.52Z" style="fill:#ec5242;fill-rule:nonzero;"/><path d="M100244,11699l-380.669,0c-0,2797.61 -1133.63,5328.76 -2966.93,7162.36c-1833.3,1833.3 -4364,2966.63 -7161.91,2966.78c-2797.92,-0.152 -5328.6,-1133.48 -7162.66,-2966.78c-1833.3,-1833.61 -2966.48,-4364.75 -2966.63,-7162.36c0.153,-2797.77 1133.33,-5328.83 2966.63,-7162.44c1834.06,-1833.3 4364.75,-2966.71 7162.66,-2966.78c2797.92,0.074 5328.61,1133.48 7161.91,2966.78c1833.3,1833.61 2966.93,4364.67 2966.93,7162.44l380.669,0c-0,-5804.52 -4705.06,-10509.7 -10509.5,-10509.9c-5804.52,0.149 -10509.8,4705.37 -10510,10509.9c0.153,5804.44 4705.45,10509.7 10510,10509.8c5804.45,-0.152 10509.5,-4705.37 10509.5,-10509.8Z" style="fill:#f2f2f2;fill-rule:nonzero;"/></svg>