<?xml version="1.0" encoding="UTF-8" standalone="no"?><!DOCTYPE svg PUBLIC "-//W3C//DTD SVG 1.1//EN" "http://www.w3.org/Graphics/SVG/1.1/DTD/svg11.dtd"><svg width="100%" height="100%" viewBox="0 0 9075 1767" version="1.1" xmlns="http://www.w3.org/2000/svg" xmlns:xlink="http://www.w3.org/1999/xlink" xml:space="preserve" xmlns:serif="http://www.serif.com/" style="fill-rule:evenodd;clip-rule:evenodd;stroke-linejoin:round;stroke-miterlimit:2;"><g><g><clipPath id="_clip1"><path d="M2.396,0l6354.17,0.013l-0,951.795l-6354.17,0l-0,-951.808Z"/></clipPath><g clip-path="url(#_clip1)"><path d="M8.242,0l208.541,0l0,758.1l314.534,0l-0,193.683l-523.075,0l-0,-951.783Zm610.808,758.1l0,193.683l529.688,0l-0,-193.683l-529.688,0Zm711.771,-758.1l529.687,0l0,195.313l-321.095,-0.001l-0,187.017l321.095,0l0,188.75l-321.095,0l-0,193.634l314.479,-0l-0,187.07l-523.071,0l-0,-951.783Zm610.821,764.713l-0,187.07l529.675,0l-0,-187.07l-529.675,-0Zm529.675,-569.401l-0,-195.312l-536.292,0l-0,195.313l536.292,-0Zm-268.142,375.766l-0,-188.75l-268.15,0l-0,188.75l268.15,0Zm523.062,-571.079l340.988,571.079l0,380.704l-529.688,-890.545l188.7,-61.238Zm764.78,0l-342.671,571.079l-0,380.704l529.687,-890.545l-187.016,-61.238Zm368.8,0l529.687,0l0,195.313l-321.091,-0l-0,187.016l321.091,0l0,188.75l-321.091,0l-0,193.634l314.479,-0l-0,187.07l-523.075,0l-0,-951.783Zm610.808,764.713l0,187.07l529.688,0l-0,-187.07l-529.688,-0Zm529.688,-569.401l-0,-195.312l-536.3,0l-0,195.313l536.3,-0Zm-268.163,375.766l0,-188.75l-268.137,0l-0,188.75l268.137,0Zm483.358,-571.079l208.592,0l0,758.1l314.479,0l0,193.683l-523.071,0l0,-951.783Zm610.809,758.1l-0,193.683l529.737,0l0,-193.683l-529.737,0Z" style="fill-rule:nonzero;"/></g></g><g><clipPath id="_clip2"><path d="M6486.79,0l2591.14,0.013l0.001,951.795l-2591.15,0l-0,-951.808Z"/></clipPath><g clip-path="url(#_clip2)"><path d="M6488.46,0l208.584,0l-0,758.1l321.146,0l-0,193.683l-341.03,0l-188.7,-112.55l0,-839.233Zm1140.55,0l-208.591,0l-0,758.1l-321.146,0l-0,193.683l342.654,0l187.083,-112.55l0,-839.233Zm297.946,0l536.3,0l0,187.017l-321.146,-0l0,195.312l321.146,0l0,193.688l-321.146,-0l0,375.766l-215.154,0l0,-951.783Zm1147.11,463.45l0,-349.271l-193.633,-114.179l-342.658,-0l-0,187.017l321.095,-0l0.001,195.312l-321.096,0l-0,193.688l342.658,-0l193.633,-112.567Z" style="fill:#ec5242;fill-rule:nonzero;"/></g></g><g><clipPath id="_clip3"><path d="M-0.196,1176.5l5160.88,0.016l0,588.213l-5160.88,0.017l0,-588.246Z"/></clipPath><g clip-path="url(#_clip3)"><path d="M182.8,1763.91c-35.65,0.505 -65.35,-4.57 -88.996,-15.262c-23.767,-10.729 -42.529,-27.708 -56.317,-50.963c-13.775,-23.137 -23.437,-52.995 -29.087,-89.466c-5.6,-36.421 -8.4,-80.159 -8.4,-131.121c-0,-48.475 2.954,-90.533 8.908,-126.183c5.792,-35.717 15.713,-65.159 29.804,-88.309c13.984,-23.241 32.955,-40.483 56.913,-51.716c23.958,-11.2 53.817,-16.771 89.467,-16.771c17.85,-0 37.329,0.583 58.45,1.808c21.2,1.342 42.316,3.358 63.216,6.108c20.9,2.85 39.779,6.055 56.563,9.609l-0,32.916c-9.663,-1.029 -23.959,-2.45 -42.825,-4.283c-18.879,-1.721 -39.625,-3.204 -62.267,-4.417c-22.733,-1.325 -45.312,-1.991 -67.746,-1.991c-37.737,-0 -67.346,8.295 -88.75,24.92c-21.421,16.538 -36.316,42.634 -44.662,78.334c-8.438,35.704 -12.709,82.854 -12.709,141.5c0,46.9 2.28,86.016 6.913,117.341c4.571,31.434 12.358,56.563 23.4,75.43c10.883,18.87 25.937,32.2 45.117,40.079c19.062,7.929 43.387,11.9 72.983,11.9c25.479,-0 51.875,-3.554 79.242,-10.675c27.216,-7.175 50.758,-14.804 70.654,-22.942l-0,-182.854l-146.85,-0l-0,-32.096c9.675,-1.521 21.158,-2.8 34.441,-3.812c13.23,-1.017 27.513,-1.93 42.825,-2.646c15.313,-0.809 31.08,-1.225 47.409,-1.225c12.758,-0 24.766,0.262 35.95,0.771c11.25,0.508 20.912,1.275 29.1,2.341l-0,289.859l-32.146,-0l-7.633,-39.767c-18.867,9.208 -42.875,18.608 -71.913,28.321c-29.1,9.675 -59.412,14.754 -91.054,15.262Zm478.112,-3.05l-49.741,0c-21.417,0 -39.675,-4.075 -54.779,-12.212c-14.959,-8.179 -26.3,-21.667 -33.93,-40.534c-7.67,-18.866 -11.487,-44.908 -11.487,-78.02l-0,-453.596l44.35,-0l0,448.971c0,26.55 2.383,46.683 7.229,60.42c4.879,13.788 11.992,23.242 21.404,28.334c9.467,5.087 20.35,8.383 32.554,9.921l44.4,5.391l0,31.325Zm227.917,3.817c-28.021,-0 -52.946,-2.954 -74.662,-8.854c-21.613,-5.796 -39.83,-16.275 -54.584,-31.379c-14.791,-14.95 -25.779,-36.109 -32.904,-63.48c-7.121,-27.212 -10.729,-62.25 -10.729,-105.075c0,-43.333 3.713,-78.687 11.029,-106.004c7.434,-27.266 18.413,-48.266 32.917,-63.075c14.546,-14.737 32.658,-24.971 54.271,-30.558c21.716,-5.65 46.641,-8.45 74.662,-8.45c28.071,-0 52.904,2.8 74.517,8.45c21.721,5.587 39.975,15.821 54.779,30.558c14.754,14.809 25.833,35.809 33.163,63.075c7.37,27.317 11.029,62.671 11.029,106.004c-0,42.825 -3.659,78.021 -11.029,105.534c-7.33,27.562 -18.317,48.721 -32.863,63.475c-14.492,14.804 -32.696,25.129 -54.621,30.925c-21.929,5.9 -46.904,8.854 -74.975,8.854Zm0,-37.433c20.404,-0 38.709,-1.984 54.934,-5.85c16.433,-3.763 29.962,-11.392 40.691,-22.942c10.729,-11.392 18.971,-28.579 24.767,-51.521c5.95,-22.996 8.904,-53.308 8.904,-91.042c0,-38.258 -2.954,-68.779 -8.904,-91.512c-5.796,-22.629 -14.038,-39.713 -24.767,-51.213c-10.729,-11.441 -24.258,-19.075 -40.691,-22.991c-16.225,-3.763 -34.53,-5.638 -54.934,-5.638c-20.9,0 -39.271,1.875 -55.079,5.638c-15.767,3.916 -29.204,11.55 -40.233,22.991c-10.888,11.5 -19.179,28.584 -24.779,51.213c-5.588,22.733 -8.388,53.254 -8.388,91.512c0,37.734 2.8,68.046 8.388,91.042c5.6,22.942 13.891,40.129 24.779,51.521c11.029,11.55 24.466,19.179 40.233,22.942c15.808,3.866 34.179,5.85 55.079,5.85Zm468.75,37.433c-19.375,-0 -37.837,-2.538 -55.391,-7.629c-17.642,-5.092 -33.725,-11.188 -48.163,-18.363c-14.596,-7.121 -27.008,-14.033 -37.175,-20.65l-9.975,42.059l-34.442,-0l0,-583.596l44.417,-0l0,215.704c20.392,-12.25 43.475,-22.733 69.271,-31.379c25.729,-8.646 49.021,-13.021 69.933,-13.021c32.096,-0 59.05,6.771 80.771,20.196c21.613,13.579 38.046,35.754 49.229,66.575c11.25,30.871 16.838,72.329 16.838,124.362c-0,41.3 -4.834,77.367 -14.492,108.188c-9.717,30.875 -25.133,54.833 -46.237,71.862c-21.213,17.15 -49.388,25.692 -84.584,25.692Zm-11.5,-37.433c25.029,-0 45.834,-6.409 62.413,-19.13c16.533,-12.762 29.046,-31.887 37.483,-57.37c8.4,-25.534 12.567,-56.613 12.567,-93.334c-0,-47.916 -4.829,-84.125 -14.546,-108.646c-9.675,-24.466 -22.942,-41.3 -39.775,-50.454c-16.838,-9.208 -36.213,-13.775 -58.142,-13.775c-25.479,0 -48.004,3.554 -67.587,10.729c-19.688,7.121 -40.238,16.325 -61.642,27.513l0,266.979c17.342,9.154 36.613,17.696 57.825,25.533c21.108,7.93 44.908,11.955 71.404,11.955Zm344.246,37.433c-29.608,-0 -54.167,-8.804 -73.75,-26.446c-19.687,-17.55 -29.504,-42.629 -29.504,-75.287l-0,-27.513c-0,-32.146 10.583,-58.137 31.796,-78.021c21.108,-19.883 52.333,-29.854 93.633,-29.854l149.129,0l0,-56.562c0,-18.363 -3.154,-34.184 -9.466,-47.45c-6.409,-13.23 -17.542,-23.45 -33.359,-30.571c-15.821,-7.175 -38.504,-10.729 -68.062,-10.729l-127.759,-0l0,-26.759c16.834,-2.033 36.875,-4.062 60.117,-6.158c23.188,-2.033 49.792,-3.296 79.854,-3.804c33.167,-0.521 60.325,3.658 81.592,12.554c21.104,8.958 36.612,22.642 46.637,41c9.859,18.358 14.846,41.55 14.846,69.583l0,291.434l-33.671,-0l-9.154,-47.396c-1.575,1.016 -7.787,4.166 -18.658,9.454c-11.042,5.442 -25.238,11.446 -42.579,18.058c-17.292,6.667 -35.65,12.359 -55.038,17.138c-19.375,4.879 -38.246,7.329 -56.604,7.329Zm15.313,-35.142c10.17,0.504 22.07,-0.666 35.6,-3.516c13.475,-2.8 27.108,-6.109 40.845,-9.963c13.775,-3.775 26.692,-7.592 38.7,-11.496c11.95,-3.762 21.613,-7.175 29.1,-10.221c7.317,-3.062 11.238,-4.583 11.746,-4.583l0,-138.45l-142.266,5.338c-31.575,1.016 -54.167,8.904 -67.592,23.708c-13.579,14.792 -20.35,33.412 -20.35,55.85l-0,19.112c-0,18.371 3.812,33.021 11.446,43.909c7.679,11.025 17.237,18.812 28.787,23.383c11.392,4.638 22.734,6.929 33.984,6.929Zm472.658,31.325l-49.688,0c-21.42,0 -39.675,-4.075 -54.779,-12.212c-15,-8.179 -26.304,-21.667 -33.971,-40.534c-7.633,-18.866 -11.445,-44.908 -11.445,-78.02l-0,-453.596l44.35,-0l-0,448.971c-0,26.55 2.391,46.683 7.17,60.42c4.938,13.788 12.046,23.242 21.459,28.334c9.466,5.087 20.354,8.383 32.554,9.921l44.35,5.391l-0,31.325Zm435.896,3.817c-10.729,-0 -23.604,-0.263 -38.554,-0.767c-15.105,-0.508 -30.925,-1.371 -47.459,-2.591c-16.629,-1.317 -32.137,-2.646 -46.641,-3.971c-14.596,-1.213 -26.446,-2.842 -35.65,-4.884l-0,-33.675c11.741,1.03 26.65,2.046 44.816,3.063c18.046,1.017 37.684,1.783 58.892,2.292c21.108,0.508 42.108,0.754 63.075,0.754c23.958,-0 45.871,-2.434 65.767,-7.317c19.883,-4.779 35.704,-13.987 47.395,-27.525c11.746,-13.479 17.605,-33.204 17.605,-59.196l-0,-42.837c-0,-28.579 -7.121,-50.496 -21.421,-65.809c-14.284,-15.312 -37.734,-22.941 -70.388,-22.941l-65,-0c-43.841,-0 -78.387,-9.559 -103.558,-28.738c-25.283,-19.075 -37.942,-52.85 -37.942,-101.312l0,-32.867c0,-52.537 13.779,-89.412 41.292,-110.625c27.525,-21.108 66.025,-31.612 115.521,-31.612c15.3,-0 33.058,0.741 53.241,2.262c20.092,1.538 39.83,3.308 59.205,5.354c19.387,2.029 34.895,4.063 46.641,6.092l0,33.671c-21.916,-1.521 -46.887,-3.2 -74.975,-5.038c-28.021,-1.716 -54.816,-2.591 -80.3,-2.591c-24.466,-0 -45.479,2.904 -63.021,8.7c-17.654,5.895 -31.183,16.379 -40.545,31.379c-9.505,15.066 -14.234,36.366 -14.234,63.946l0,29.804c0,34.179 8.842,57.475 26.5,69.933c17.5,12.567 41.863,18.817 72.929,18.817l68.113,-0c30.05,-0 54.779,5.441 74.154,16.379c19.375,10.992 33.671,26.042 42.875,45.117c9.154,19.166 13.738,40.991 13.738,65.458l-0,46.692c-0,36.158 -7.892,63.983 -23.709,83.358c-15.808,19.387 -36.721,32.762 -62.708,40.079c-25.992,7.433 -54.571,11.146 -85.654,11.146Zm406.133,-0c-39.258,-0 -69.571,-9.921 -90.987,-29.804c-21.459,-19.896 -32.15,-51.784 -32.15,-95.625l-0,-286.813l44.362,0l0,276.892c0,37.746 8.438,63.071 25.221,75.987c16.837,13.075 41.096,19.584 72.683,19.584c26.496,-0 50.509,-3.45 71.925,-10.379c21.409,-6.809 43.842,-17.134 67.292,-30.921l-0,-331.163l44.35,0l-0,407.659l-32.863,-0l-11.487,-45.871c-20.908,13.775 -44.971,25.583 -72.175,35.491c-27.367,9.975 -56.054,14.963 -86.171,14.963Zm370.233,-4.583l-44.345,-0l-0,-407.659l32.85,0l11.495,45.875c20.9,-14.283 44.613,-26.654 71.163,-37.175c26.496,-10.429 55.283,-15.612 86.404,-15.612c25.496,-0 47.408,5.741 65.767,17.137c18.362,11.546 32.15,26.442 41.304,44.804c12.771,-10.17 28.683,-19.883 47.758,-29.037c19.184,-9.204 39.571,-16.992 61.188,-23.4c21.716,-6.354 42.266,-9.504 61.654,-9.504c28.529,-0 52.383,6.25 71.458,18.658c19.179,12.567 33.317,29.142 42.525,49.742c9.154,20.7 13.725,43.291 13.725,67.758l0,278.413l-44.35,-0l0,-275.367c0,-18.867 -3.816,-35.7 -11.446,-50.454c-7.683,-14.804 -18.516,-26.55 -32.604,-35.196c-13.983,-8.646 -30.925,-13.021 -50.808,-13.021c-24.971,0 -50.717,4.729 -77.263,14.088c-26.5,9.454 -51.475,21.108 -74.925,34.883c3.063,7.633 5.446,15.679 7.175,24.012c1.838,8.45 2.75,17.042 2.75,25.688l0,275.367l-44.35,-0l0,-275.367c0,-18.867 -3.816,-35.7 -11.5,-50.454c-7.629,-14.804 -18.358,-26.55 -32.095,-35.196c-13.775,-8.646 -30.613,-13.021 -50.509,-13.021c-19.375,0 -36.875,1.629 -52.433,4.938c-15.508,3.358 -30.571,8.333 -45.171,14.945c-14.437,6.667 -29.596,14.296 -45.417,22.942l0,331.213Zm729.73,-0l-44.351,-0l0.001,-407.659l32.849,0l11.501,45.875c20.895,-14.283 44.608,-26.654 71.158,-37.175c26.496,-10.429 55.287,-15.612 86.404,-15.612c25.483,-0 47.412,5.741 65.771,17.137c18.358,11.546 32.146,26.442 41.3,44.804c12.775,-10.17 28.687,-19.883 47.762,-29.037c19.18,-9.204 39.571,-16.992 61.184,-23.4c21.721,-6.354 42.266,-9.504 61.654,-9.504c28.529,-0 52.383,6.25 71.458,18.658c19.179,12.567 33.321,29.142 42.525,49.742c9.154,20.7 13.725,43.291 13.725,67.758l0,278.413l-44.35,-0l0,-275.367c0,-18.867 -3.812,-35.7 -11.446,-50.454c-7.679,-14.804 -18.512,-26.55 -32.604,-35.196c-13.983,-8.646 -30.921,-13.021 -50.804,-13.021c-24.975,0 -50.717,4.729 -77.267,14.088c-26.495,9.454 -51.471,21.108 -74.921,34.883c3.059,7.633 5.442,15.679 7.176,24.012c1.833,8.45 2.745,17.042 2.745,25.688l0,275.367l-44.35,-0l0,-275.367c0,-18.867 -3.812,-35.7 -11.495,-50.454c-7.63,-14.804 -18.359,-26.55 -32.096,-35.196c-13.779,-8.646 -30.613,-13.021 -50.509,-13.021c-19.375,0 -36.875,1.629 -52.437,4.938c-15.508,3.358 -30.571,8.333 -45.167,14.945c-14.491,6.667 -29.596,14.296 -45.416,22.942l-0,331.213Zm722.708,-484.155l-29.858,0c-7.63,0 -11.509,-3.816 -11.509,-11.495l0,-54.325c0,-7.63 3.879,-11.446 11.509,-11.446l29.858,-0c3.554,-0 6.104,1.016 7.629,3.062c1.525,2.029 2.292,4.829 2.292,8.384l-0,54.325c-0,7.679 -3.309,11.495 -9.921,11.495Zm6.85,484.155l-44.338,-0l0,-407.659l44.338,0l-0,407.659Zm304.425,-0l-51.225,-0c-24.454,-0 -45.013,-4.325 -61.483,-12.971c-16.642,-8.696 -29.05,-22.471 -37.188,-41.354c-8.192,-18.813 -12.254,-43.334 -12.254,-73.384l2.292,-242.512l-65,-0l-0,-29.05l64.999,-8.388l8.438,-113.983l33.621,-0l-0,113.983l123.958,0l0,37.438l-123.958,-0l-0,242.512c-0,19.375 2.187,35.038 6.617,46.942c4.27,12.054 9.866,21.104 16.833,27.262c6.812,6.109 14.196,10.275 22.175,12.513c7.837,2.346 15.312,3.767 22.487,4.271l49.688,4.625l-0,32.096Z" style="fill-rule:nonzero;"/></g></g></g></svg>