<?xml version="1.0" encoding="UTF-8" standalone="no"?><!DOCTYPE svg PUBLIC "-//W3C//DTD SVG 1.1//EN" "http://www.w3.org/Graphics/SVG/1.1/DTD/svg11.dtd"><svg width="100%" height="100%" viewBox="0 0 37813 7363" version="1.1" xmlns="http://www.w3.org/2000/svg" xmlns:xlink="http://www.w3.org/1999/xlink" xml:space="preserve" xmlns:serif="http://www.serif.com/" style="fill-rule:evenodd;clip-rule:evenodd;stroke-linejoin:round;stroke-miterlimit:2;"><g><g><g><clipPath id="_clip1"><path d="M9.983,0l26475.7,0.054l-0,3965.81l-26475.7,-0l0,-3965.87Z"/></clipPath><g clip-path="url(#_clip1)"><path d="M34.342,0l868.921,0l-0,3158.75l1310.56,0l-0,807.013l-2179.48,-0l-0,-3965.76Zm2545.03,3158.75l0,807.013l2207.03,-0l0,-807.013l-2207.03,0Zm2965.71,-3158.75l2207.03,0l-0,813.804l-1337.9,-0.004l-0,779.237l1337.9,0.001l-0,786.458l-1337.9,-0l-0,806.808l1310.33,0l0,779.459l-2179.46,-0.001l0.001,-3965.76Zm2545.09,3186.3l0,779.459l2206.98,-0.001l0,-779.458l-2206.98,0Zm2206.98,-2372.5l0,-813.804l-2234.55,0l0,813.804l2234.55,0Zm-1117.26,1565.69l-0,-786.459l-1117.29,0l0,786.459l1117.29,-0Zm2179.43,-2379.5l1420.78,2379.5l0,1586.27l-2207.03,-3710.6l786.25,-255.158Zm3186.58,-0l-1427.8,2379.5l0,1586.27l2207.03,-3710.6l-779.234,-255.158Zm1536.67,-0l2207.03,-0l0,813.804l-1337.88,0l-0,779.233l1337.88,0l0,786.459l-1337.88,-0l-0,806.808l1310.33,0l0,779.458l-2179.48,0l-0,-3965.76Zm2545.03,3186.3l0,779.458l2207.03,0l-0,-779.458l-2207.03,0Zm2207.03,-2372.5l-0,-813.804l-2234.58,-0l0,813.804l2234.58,0Zm-1117.35,1565.69l-0,-786.459l-1117.24,0l0,786.459l1117.24,-0Zm2013.99,-2379.5l869.134,-0l-0,3158.75l1310.33,-0l-0,807.012l-2179.46,0l0,-3965.76Zm2545.04,3158.75l-0,807.012l2207.24,0l0,-807.012l-2207.24,-0Z" style="fill:#fff;fill-rule:nonzero;"/></g></g></g><g><g><clipPath id="_clip2"><path d="M27028.3,0l10796.4,0.054l0.005,3965.81l-10796.5,-0l0,-3965.87l0.038,0Z"/></clipPath><g clip-path="url(#_clip2)"><path d="M27035.2,0l869.1,0l0,3158.75l1338.11,0l0,807.013l-1420.96,-0l-786.25,-468.959l0,-3496.8Zm4752.29,0l-869.129,0l-0,3158.75l-1338.11,0l0,807.013l1427.73,-0l779.513,-468.959l-0,-3496.8Zm1241.44,0l2234.58,0l-0,779.238l-1338.11,-0l0,813.8l1338.11,-0l-0,807.033l-1338.11,-0l0,1565.69l-896.475,-0l0,-3965.76Zm4779.62,1931.04l0,-1455.3l-806.804,-475.746l-1427.74,-0l0,779.237l1337.9,0l0.004,813.8l-1337.9,0l0,807.034l1427.74,-0l806.804,-469.029Z" style="fill:#ec5242;fill-rule:nonzero;"/></g></g></g><g><g><clipPath id="_clip3"><path d="M-0.817,4902.08l21503.7,0.067l0,2450.89l-21503.7,0.071l0,-2451.03Z"/></clipPath><g clip-path="url(#_clip3)"><path d="M761.667,7349.62c-148.542,2.104 -272.292,-19.042 -370.817,-63.592c-99.029,-44.704 -177.204,-115.45 -234.654,-212.345c-57.396,-96.405 -97.654,-220.813 -121.196,-372.775c-23.333,-151.755 -35,-333.996 -35,-546.338c0,-201.979 12.308,-377.221 37.117,-525.762c24.133,-148.821 65.471,-271.496 124.183,-367.955c58.267,-96.837 137.313,-168.679 237.138,-215.483c99.825,-46.667 224.237,-69.879 372.779,-69.879c74.375,-0 155.537,2.429 243.541,7.533c88.334,5.592 176.317,13.992 263.4,25.45c87.084,11.875 165.746,25.229 235.68,40.038l-0,137.15c-40.263,-4.288 -99.83,-10.209 -178.438,-17.846c-78.662,-7.171 -165.104,-13.35 -259.446,-18.404c-94.721,-5.521 -188.8,-8.296 -282.275,-8.296c-157.237,-0 -280.608,34.562 -369.791,103.833c-89.255,68.909 -151.317,177.642 -186.092,326.392c-35.158,148.767 -52.954,345.225 -52.954,589.583c-0,195.417 9.5,358.4 28.804,488.921c19.046,130.975 51.492,235.679 97.5,314.292c45.346,78.625 108.071,134.166 187.987,166.996c79.425,33.037 180.78,49.583 304.096,49.583c106.163,-0 216.146,-14.808 330.175,-44.479c113.4,-29.896 211.492,-61.684 294.392,-95.592l-0,-761.892l-611.875,0l-0,-133.733c40.312,-6.337 88.158,-11.667 143.504,-15.883c55.125,-4.238 114.638,-8.042 178.438,-11.025c63.804,-3.371 129.5,-5.104 197.537,-5.104c53.158,-0 103.192,1.091 149.792,3.212c46.875,2.117 87.133,5.313 121.25,9.754l-0,1207.75l-133.942,0l-31.804,-165.696c-78.613,38.367 -178.646,77.534 -299.638,118.004c-121.25,40.313 -247.55,61.475 -379.391,63.592Zm1992.13,-12.708l-207.254,-0c-89.238,-0 -165.313,-16.979 -228.246,-50.884c-62.329,-34.079 -109.583,-90.279 -141.375,-168.891c-31.958,-78.609 -47.862,-187.117 -47.862,-325.084l-0,-1889.98l184.791,0l0,1870.71c0,110.626 9.929,194.513 30.121,251.751c20.329,57.45 49.967,96.841 89.183,118.058c39.446,21.196 84.792,34.929 135.642,41.337l185,22.463l0,130.521Zm949.654,15.904c-116.754,-0 -220.608,-12.308 -311.091,-36.892c-90.055,-24.15 -165.959,-67.812 -227.434,-130.746c-61.629,-62.291 -107.412,-150.454 -137.1,-264.5c-29.671,-113.383 -44.704,-259.375 -44.704,-437.812c0,-180.554 15.471,-327.863 45.954,-441.684c30.975,-113.608 76.721,-201.108 137.154,-262.812c60.609,-61.404 136.075,-104.046 226.13,-127.325c90.483,-23.542 194.337,-35.208 311.091,-35.208c116.963,-0 220.434,11.666 310.488,35.208c90.504,23.279 166.562,65.921 228.246,127.325c61.475,61.704 107.637,149.204 138.179,262.813c30.708,113.82 45.954,261.129 45.954,441.683c-0,178.437 -15.246,325.087 -45.954,439.725c-30.542,114.841 -76.321,203.004 -136.929,264.479c-60.384,61.683 -136.234,104.704 -227.588,128.854c-91.371,24.583 -195.433,36.892 -312.396,36.892Zm0,-155.971c85.017,-0 161.288,-8.267 228.892,-24.375c68.471,-15.679 124.842,-47.467 169.546,-95.592c44.704,-47.466 79.046,-119.079 103.196,-214.671c24.791,-95.816 37.1,-222.116 37.1,-379.341c-0,-159.409 -12.309,-286.579 -37.1,-381.3c-24.15,-94.288 -58.492,-165.471 -103.196,-213.388c-44.704,-47.67 -101.075,-79.479 -169.546,-95.795c-67.604,-15.68 -143.875,-23.492 -228.892,-23.492c-87.083,-0 -163.629,7.812 -229.496,23.492c-65.695,16.316 -121.683,48.125 -167.637,95.795c-45.367,47.917 -79.913,119.1 -103.246,213.388c-23.283,94.721 -34.95,221.891 -34.95,381.3c0,157.225 11.667,283.525 34.95,379.341c23.333,95.592 57.879,167.205 103.246,214.671c45.954,48.125 101.942,79.913 167.637,95.592c65.867,16.108 142.413,24.375 229.496,24.375Zm1953.12,155.971c-80.729,-0 -157.654,-10.575 -230.796,-31.788c-73.508,-21.216 -140.52,-46.616 -200.679,-76.512c-60.816,-29.671 -112.533,-58.471 -154.896,-86.042l-41.562,175.246l-143.508,-0l-0,-2431.65l185.07,-0l0,898.767c84.967,-51.042 181.146,-94.721 288.63,-130.746c107.204,-36.025 204.254,-54.254 291.387,-54.254c133.733,-0 246.042,28.212 336.546,84.15c90.054,56.579 158.525,148.975 205.121,277.395c46.875,128.63 70.158,301.371 70.158,518.175c0,172.084 -20.142,322.363 -60.383,450.784c-40.488,128.646 -104.721,228.471 -192.654,299.425c-88.388,71.458 -205.784,107.05 -352.434,107.05Zm-47.916,-155.971c104.287,-0 190.975,-26.704 260.054,-79.708c68.887,-53.175 121.025,-132.863 156.179,-239.042c35,-106.392 52.362,-235.888 52.362,-388.892c0,-199.65 -20.12,-350.521 -60.608,-452.691c-40.312,-101.942 -95.592,-172.084 -165.729,-210.225c-70.158,-38.367 -150.888,-57.396 -242.258,-57.396c-106.163,-0 -200.017,14.808 -281.613,44.704c-82.033,29.671 -167.658,68.021 -256.842,114.637l0,1112.41c72.259,38.142 152.554,73.733 240.938,106.387c87.95,33.042 187.116,49.813 297.516,49.813Zm1434.36,155.971c-123.367,-0 -225.696,-36.684 -307.292,-110.192c-82.029,-73.125 -122.933,-177.621 -122.933,-313.696l-0,-114.637c-0,-133.942 44.096,-242.238 132.483,-325.088c87.95,-82.846 218.054,-124.391 390.138,-124.391l621.371,-0l-0,-235.675c-0,-76.513 -13.142,-142.434 -39.442,-197.709c-26.704,-55.125 -73.092,-97.708 -138.996,-127.379c-65.921,-29.896 -160.433,-44.704 -283.592,-44.704l-532.329,-0l0,-111.496c70.142,-8.471 153.646,-16.925 250.488,-25.658c96.616,-8.471 207.466,-13.734 332.725,-15.85c138.196,-2.171 251.354,15.241 339.966,52.308c87.934,37.325 152.55,94.342 194.321,170.833c41.079,76.492 61.859,173.126 61.859,289.93l-0,1214.31l-140.296,0l-38.142,-197.483c-6.562,4.233 -32.446,17.358 -77.742,39.391c-46.008,22.675 -105.158,47.692 -177.412,75.242c-72.05,27.779 -148.542,51.496 -229.325,71.408c-80.729,20.329 -159.358,30.538 -235.85,30.538Zm63.804,-146.425c42.375,2.1 91.958,-2.775 148.333,-14.65c56.146,-11.667 112.95,-25.454 170.188,-41.513c57.396,-15.729 111.217,-31.633 161.25,-47.9c49.792,-15.675 90.054,-29.896 121.25,-42.587c30.487,-12.759 46.825,-19.096 48.942,-19.096l-0,-576.875l-592.775,22.242c-131.563,4.233 -225.696,37.1 -281.634,98.783c-56.579,61.633 -84.792,139.217 -84.792,232.708l0.001,79.634c-0.001,76.545 15.883,137.587 47.691,182.954c31.996,45.937 71.821,78.383 119.946,97.429c47.467,19.325 94.725,28.871 141.6,28.871Zm1969.41,130.521l-207.033,-0c-89.25,-0 -165.313,-16.98 -228.246,-50.884c-62.5,-34.079 -109.6,-90.279 -141.546,-168.891c-31.804,-78.609 -47.687,-187.117 -47.687,-325.084l-0,-1889.98l184.791,-0l0.001,1870.71c-0.001,110.625 9.962,194.513 29.874,251.75c20.576,57.45 50.192,96.842 89.413,118.059c39.442,21.196 84.808,34.929 135.642,41.337l184.791,22.463l0,130.521Zm1816.23,15.904c-44.704,-0 -98.35,-1.096 -160.642,-3.196c-62.938,-2.117 -128.854,-5.713 -197.746,-10.796c-69.287,-5.487 -133.904,-11.025 -194.337,-16.546c-60.817,-5.054 -110.192,-11.841 -148.542,-20.35l-0,-140.312c48.921,4.291 111.042,8.525 186.733,12.762c75.192,4.238 157.017,7.43 245.384,9.55c87.95,2.117 175.45,3.142 262.812,3.142c99.825,-0 191.129,-10.142 274.029,-30.488c82.846,-19.912 148.767,-58.279 197.479,-114.687c48.942,-56.163 73.355,-138.35 73.355,-246.65l-0,-178.488c-0,-119.079 -29.671,-210.4 -89.255,-274.204c-59.516,-63.8 -157.225,-95.587 -293.283,-95.587l-270.833,-0c-182.671,-0 -326.613,-39.829 -431.492,-119.742c-105.346,-79.479 -158.092,-220.208 -158.092,-422.133l0,-136.946c0,-218.904 57.413,-372.55 172.05,-460.938c114.688,-87.949 275.105,-131.716 481.338,-131.716c63.75,-0 137.742,3.087 221.837,9.425c83.717,6.408 165.959,13.783 246.688,22.308c80.779,8.454 145.396,16.929 194.337,25.383l0,140.296c-91.316,-6.337 -195.362,-13.333 -312.395,-20.991c-116.755,-7.15 -228.4,-10.796 -334.584,-10.796c-101.941,-0 -189.495,12.1 -262.587,36.25c-73.559,24.562 -129.929,68.246 -168.938,130.746c-39.604,62.775 -59.308,151.525 -59.308,266.441l0,124.184c0,142.412 36.842,239.479 110.417,291.387c72.916,52.363 174.429,78.404 303.871,78.404l283.804,0c125.208,0 228.246,22.671 308.975,68.246c80.729,45.8 140.295,108.508 178.646,187.988c38.141,79.858 57.241,170.795 57.241,272.741l0,194.55c0,150.659 -32.883,266.596 -98.787,347.325c-65.867,80.779 -153.005,136.509 -261.284,166.996c-108.3,30.971 -227.379,46.442 -356.891,46.442Zm1692.22,-0c-163.575,-0 -289.88,-41.338 -379.113,-124.184c-89.412,-82.9 -133.958,-215.766 -133.958,-398.437l-0,-1195.05l184.841,-0l0,1153.72c0,157.275 35.159,262.796 105.088,316.613c70.154,54.479 171.233,81.6 302.846,81.6c110.4,-0 210.454,-14.375 299.687,-43.246c89.204,-28.371 182.675,-71.392 280.384,-128.837l-0,-1379.85l184.791,-0l0,1698.58l-136.929,-0l-47.862,-191.129c-87.117,57.396 -187.38,106.596 -300.73,147.879c-114.029,41.562 -233.558,62.346 -359.045,62.346Zm1542.64,-19.096l-184.771,-0l0,-1698.58l136.875,-0l47.896,191.146c87.083,-59.513 185.888,-111.059 296.513,-154.896c110.4,-43.454 230.345,-65.05 360.016,-65.05c106.234,-0 197.534,23.921 274.029,71.404c76.509,48.108 133.959,110.175 172.1,186.683c53.213,-42.375 119.513,-82.846 198.992,-120.987c79.933,-38.35 164.879,-70.8 254.95,-97.5c90.483,-26.475 176.108,-39.6 256.892,-39.6c118.87,-0 218.262,26.041 297.741,77.741c79.913,52.363 138.821,121.425 177.188,207.259c38.142,86.25 57.187,180.379 57.187,282.325l0,1160.05l-184.791,-0l-0,-1147.36c-0,-78.612 -15.9,-148.75 -47.692,-210.225c-32.013,-61.683 -77.15,-110.625 -135.85,-146.65c-58.263,-36.025 -128.854,-54.254 -211.7,-54.254c-104.046,0 -211.321,19.704 -321.929,58.7c-110.417,39.392 -214.479,87.95 -312.188,145.346c12.763,31.804 22.692,65.329 29.896,100.05c7.658,35.208 11.458,71.008 11.458,107.034l0,1147.36l-184.791,0l-0,-1147.36c-0,-78.613 -15.9,-148.751 -47.917,-210.225c-31.787,-61.684 -76.492,-110.625 -133.729,-146.65c-57.396,-36.025 -127.554,-54.255 -210.454,-54.255c-80.729,0 -153.646,6.788 -218.471,20.575c-64.617,13.992 -127.379,34.721 -188.213,62.271c-60.154,27.779 -123.316,59.567 -189.237,95.592l-0,1380.05Zm3040.54,0l-184.796,0l0.004,-1698.58l136.871,-0l47.921,191.146c87.062,-59.513 185.866,-111.059 296.491,-154.896c110.4,-43.454 230.363,-65.05 360.017,-65.05c106.179,-0 197.55,23.921 274.046,71.404c76.491,48.108 133.941,110.175 172.083,186.683c53.229,-42.375 119.529,-82.846 199.008,-120.987c79.917,-38.35 164.88,-70.8 254.934,-97.5c90.504,-26.475 176.108,-39.6 256.891,-39.6c118.871,-0 218.263,26.042 297.742,77.742c79.913,52.362 138.838,121.425 177.188,207.258c38.141,86.25 57.187,180.379 57.187,282.325l0,1160.05l-184.792,0l0,-1147.36c0,-78.613 -15.883,-148.751 -47.691,-210.225c-31.996,-61.684 -77.134,-110.625 -135.85,-146.65c-58.263,-36.025 -128.838,-54.255 -211.684,-54.255c-104.062,0 -211.32,19.705 -321.945,58.7c-110.396,39.392 -214.463,87.95 -312.171,145.346c12.746,31.804 22.675,65.329 29.9,100.05c7.637,35.209 11.437,71.009 11.437,107.034l0,1147.36l-184.791,0l-0,-1147.36c-0,-78.613 -15.884,-148.75 -47.896,-210.225c-31.792,-61.684 -76.496,-110.625 -133.734,-146.65c-57.412,-36.025 -127.554,-54.255 -210.454,-54.255c-80.729,0 -153.646,6.788 -218.487,20.575c-64.617,13.992 -127.379,34.721 -188.196,62.271c-60.379,27.779 -123.317,59.567 -189.233,95.592l-0,1380.05Zm3011.28,-2017.31l-124.408,-0c-31.792,-0 -47.955,-15.9 -47.955,-47.896l0,-226.354c0,-31.792 16.163,-47.692 47.955,-47.692l124.408,-0c14.808,-0 25.433,4.233 31.787,12.758c6.355,8.454 9.55,20.121 9.55,34.934l0,226.354c0,31.996 -13.787,47.896 -41.337,47.896Zm28.542,2017.31l-184.742,0l-0,-1698.58l184.742,-0l-0,1698.58Zm1268.44,0l-213.437,0c-101.892,0 -187.555,-18.021 -256.18,-54.046c-69.341,-36.233 -121.041,-93.629 -154.95,-172.308c-34.133,-78.388 -51.058,-180.558 -51.058,-305.767l9.55,-1010.47l-270.833,-0l-0,-121.042l270.829,-34.95l35.158,-474.929l140.088,-0l-0,474.929l516.491,-0l0,155.992l-516.491,-0l-0,1010.47c-0,80.729 9.112,145.992 27.571,195.592c17.791,50.225 41.108,87.933 70.137,113.592c28.383,25.454 59.15,42.812 92.396,52.137c32.654,9.775 63.8,15.696 93.696,17.796l207.033,19.271l0,133.733Z" style="fill:#fff;fill-rule:nonzero;"/></g></g></g></g></svg>