<?xml version="1.0" encoding="UTF-8" standalone="no"?><!DOCTYPE svg PUBLIC "-//W3C//DTD SVG 1.1//EN" "http://www.w3.org/Graphics/SVG/1.1/DTD/svg11.dtd"><svg width="100%" height="100%" viewBox="0 0 40 40" version="1.1" xmlns="http://www.w3.org/2000/svg" xmlns:xlink="http://www.w3.org/1999/xlink" xml:space="preserve" xmlns:serif="http://www.serif.com/" style="fill-rule:evenodd;clip-rule:evenodd;stroke-linejoin:round;stroke-miterlimit:2;"><rect x="-0.05" y="0.046" width="40" height="40" style="fill:#262a31;"/><path d="M32.753,6.114c-0.313,-0.312 -0.82,-0.312 -1.133,0l-25.506,25.506c-0.312,0.313 -0.312,0.82 0,1.133l1.133,1.133c0.313,0.312 0.82,0.312 1.133,-0l25.506,-25.506c0.312,-0.313 0.312,-0.82 -0,-1.133l-1.133,-1.133Z" style="fill:#20242b;"/><path d="M7.247,6.114c0.313,-0.312 0.82,-0.312 1.133,0l25.506,25.506c0.312,0.313 0.312,0.82 -0,1.133l-1.133,1.133c-0.313,0.312 -0.82,0.312 -1.133,-0l-25.506,-25.506c-0.312,-0.313 -0.312,-0.82 0,-1.133l1.133,-1.133Z" style="fill:#20242b;"/><circle cx="20" cy="20" r="7.432" style="fill:#262a31;"/></svg>